<?xml version="1.0" encoding="iso-8859-1"?>
<!-- Generator: Adobe Illustrator 19.0.0, SVG Export Plug-In . SVG Version: 6.00 Build 0)  -->
<svg version="1.1" id="Layer_1" xmlns="http://www.w3.org/2000/svg" xmlns:xlink="http://www.w3.org/1999/xlink" x="0px" y="0px"
	 viewBox="0 0 512 512" style="enable-background:new 0 0 512 512;" xml:space="preserve">
<g>
	<g>
		<path fill="yellow" d="M425.312,130.243C405.427,55.354,337.06,0,256,0S106.573,55.354,86.688,130.243
			c-18.999,6.091-32.794,23.919-32.794,44.915c0,26.003,21.155,47.158,47.158,47.158h20.211v-47.158
			c0-74.294,60.443-134.737,134.737-134.737s134.737,60.443,134.737,134.737v47.158h20.211c26.003,0,47.158-21.155,47.158-47.158
			C458.105,154.162,444.311,136.335,425.312,130.243z"/>
	</g>
</g>
<g>
	<g>
		<path fill="white" d="M274.538,228.363c-10.538,10.014-27.251,9.875-37.593-0.468c-10.507-10.507-10.507-27.602,0-38.11
			c9.857-9.857,25.52-10.464,36.096-1.819c38.253-2.916,70.921-14.723,76.94-20.458c-3.898-48.507-44.47-86.665-93.982-86.665
			c-52.089,0-94.316,42.227-94.316,94.316s42.227,94.316,94.316,94.316c37.57,0,70.001-21.97,85.166-53.76
			c-1.24,0.403-2.498,0.803-3.789,1.198C317.909,222.867,295.8,226.851,274.538,228.363z"/>
	</g>
</g>
<g>
	<g>
		<path fill="white" d="M318.867,294.183c-19.08,10.103-40.608,15.712-62.867,15.712c-22.742,0-44.183-5.672-62.993-15.665
			C124.198,319.806,75.17,386.064,75.17,463.778C75.17,490.41,96.76,512,123.391,512h265.219c26.632,0,48.221-21.59,48.221-48.222
			C436.83,386.017,387.743,319.725,318.867,294.183z"/>
	</g>
</g>
<g>
</g>
<g>
</g>
<g>
</g>
<g>
</g>
<g>
</g>
<g>
</g>
<g>
</g>
<g>
</g>
<g>
</g>
<g>
</g>
<g>
</g>
<g>
</g>
<g>
</g>
<g>
</g>
<g>
</g>
</svg>
